<svg xmlns="http://www.w3.org/2000/svg" viewBox="0 0 200 200" width="200" height="200">
  <!-- Bowl -->
  <ellipse cx="100" cy="140" rx="85" ry="25" fill="#FF6B6B" stroke="#E63946" stroke-width="3"/>
  <path d="M 15 140 Q 15 180 100 180 Q 185 180 185 140" fill="#FF8787" stroke="#E63946" stroke-width="3"/>
  
  <!-- Broth -->
  <ellipse cx="100" cy="135" rx="75" ry="20" fill="#FFA500" opacity="0.8"/>
  
  <!-- Noodles -->
  <path d="M 50 120 Q 60 115 70 120 Q 80 125 90 120 Q 100 115 110 120" stroke="#FFE5B4" stroke-width="4" fill="none" stroke-linecap="round"/>
  <path d="M 60 125 Q 70 120 80 125 Q 90 130 100 125 Q 110 120 120 125" stroke="#FFE5B4" stroke-width="4" fill="none" stroke-linecap="round"/>
  <path d="M 70 130 Q 80 125 90 130 Q 100 135 110 130 Q 120 125 130 130" stroke="#FFE5B4" stroke-width="4" fill="none" stroke-linecap="round"/>
  
  <!-- Egg -->
  <ellipse cx="110" cy="120" rx="18" ry="20" fill="#FFF" stroke="#FFD700" stroke-width="2"/>
  <ellipse cx="110" cy="120" rx="8" ry="9" fill="#FFD700"/>
  
  <!-- Meat slices -->
  <ellipse cx="70" cy="125" rx="12" ry="8" fill="#CD5C5C" stroke="#8B0000" stroke-width="1.5"/>
  <ellipse cx="140" cy="130" rx="12" ry="8" fill="#CD5C5C" stroke="#8B0000" stroke-width="1.5"/>
  
  <!-- Green onion -->
  <rect x="55" y="115" width="3" height="12" fill="#90EE90" rx="1"/>
  <rect x="145" y="120" width="3" height="10" fill="#90EE90" rx="1"/>
  
  <!-- Chopsticks -->
  <line x1="150" y1="80" x2="165" y2="150" stroke="#8B4513" stroke-width="3" stroke-linecap="round"/>
  <line x1="155" y1="75" x2="170" y2="145" stroke="#8B4513" stroke-width="3" stroke-linecap="round"/>
  
  <!-- Steam -->
  <path d="M 80 100 Q 85 85 90 100" stroke="#D3D3D3" stroke-width="2" fill="none" opacity="0.6" stroke-linecap="round"/>
  <path d="M 100 95 Q 105 80 110 95" stroke="#D3D3D3" stroke-width="2" fill="none" opacity="0.6" stroke-linecap="round"/>
  <path d="M 120 100 Q 125 85 130 100" stroke="#D3D3D3" stroke-width="2" fill="none" opacity="0.6" stroke-linecap="round"/>
</svg>
